<?xml version="1.0" encoding="utf-8"?>
<!-- Svg Vector Icons : http://www.onlinewebfonts.com/icon -->
<!DOCTYPE svg PUBLIC "-//W3C//DTD SVG 1.1//EN" "http://www.w3.org/Graphics/SVG/1.1/DTD/svg11.dtd">
<svg version="1.1" xmlns="http://www.w3.org/2000/svg" xmlns:xlink="http://www.w3.org/1999/xlink" x="0px" y="0px" viewBox="0 0 1000 1000" enable-background="new 0 0 1000 1000" xml:space="preserve">
<metadata> Svg Vector Icons : http://www.onlinewebfonts.com/icon </metadata>
<g><path d="M913.8,454L699.2,668.6L331.4,300.8L546,86.2c101.6-101.6,266.3-101.6,367.8,0C1015.4,187.8,1015.4,352.4,913.8,454z M870.7,193.4c-21.4-21.6-50.5,2.9-33.1,30.6c0,0,25.6,39.7,15.3,76.6c-14,50.2-46,76.6-46,76.6c-28.9,21.7-19.3,60.6,15.3,46c17.5-7.4,64.4-51.3,76.6-107.3C908.5,272,897.1,220.1,870.7,193.4z M454,913.8c-101.6,101.6-266.3,101.6-367.8,0C-15.4,812.2-15.4,647.6,86.2,546l214.6-214.6l367.8,367.8L454,913.8z"/></g>
</svg>